<mxfile host="Electron" agent="Mozilla/5.0 (Windows NT 10.0; Win64; x64) AppleWebKit/537.36 (KHTML, like Gecko) draw.io/26.0.16 Chrome/132.0.6834.196 Electron/34.2.0 Safari/537.36" version="26.0.16">
  <diagram id="R2lEEEUBdFMjLlhIrx00" name="Page-1">
    <mxGraphModel dx="590" dy="1034" grid="1" gridSize="10" guides="1" tooltips="1" connect="1" arrows="1" fold="1" page="1" pageScale="1" pageWidth="850" pageHeight="1100" math="0" shadow="0" extFonts="Permanent Marker^https://fonts.googleapis.com/css?family=Permanent+Marker">
      <root>
        <mxCell id="0" />
        <mxCell id="1" parent="0" />
        <mxCell id="_O9gy7H62gDmHZxX6DtU-1" value="User" style="shape=table;startSize=30;container=1;collapsible=1;childLayout=tableLayout;fixedRows=1;rowLines=0;fontStyle=1;align=center;resizeLast=1;html=1;labelBackgroundColor=none;fillColor=#FAE5C7;strokeColor=#0F8B8D;fontColor=#143642;rounded=1;" parent="1" vertex="1">
          <mxGeometry x="141" y="130" width="180" height="180" as="geometry">
            <mxRectangle x="120" y="440" width="70" height="30" as="alternateBounds" />
          </mxGeometry>
        </mxCell>
        <mxCell id="_O9gy7H62gDmHZxX6DtU-2" value="" style="shape=tableRow;horizontal=0;startSize=0;swimlaneHead=0;swimlaneBody=0;fillColor=none;collapsible=0;dropTarget=0;points=[[0,0.5],[1,0.5]];portConstraint=eastwest;top=0;left=0;right=0;bottom=1;labelBackgroundColor=none;strokeColor=#0F8B8D;fontColor=#143642;rounded=1;" parent="_O9gy7H62gDmHZxX6DtU-1" vertex="1">
          <mxGeometry y="30" width="180" height="30" as="geometry" />
        </mxCell>
        <mxCell id="_O9gy7H62gDmHZxX6DtU-3" value="PK" style="shape=partialRectangle;connectable=0;fillColor=none;top=0;left=0;bottom=0;right=0;fontStyle=1;overflow=hidden;whiteSpace=wrap;html=1;labelBackgroundColor=none;strokeColor=#0F8B8D;fontColor=#143642;rounded=1;" parent="_O9gy7H62gDmHZxX6DtU-2" vertex="1">
          <mxGeometry width="30" height="30" as="geometry">
            <mxRectangle width="30" height="30" as="alternateBounds" />
          </mxGeometry>
        </mxCell>
        <mxCell id="_O9gy7H62gDmHZxX6DtU-4" value="UserID" style="shape=partialRectangle;connectable=0;fillColor=none;top=0;left=0;bottom=0;right=0;align=left;spacingLeft=6;fontStyle=5;overflow=hidden;whiteSpace=wrap;html=1;labelBackgroundColor=none;strokeColor=#0F8B8D;fontColor=#143642;rounded=1;" parent="_O9gy7H62gDmHZxX6DtU-2" vertex="1">
          <mxGeometry x="30" width="150" height="30" as="geometry">
            <mxRectangle width="150" height="30" as="alternateBounds" />
          </mxGeometry>
        </mxCell>
        <mxCell id="_O9gy7H62gDmHZxX6DtU-5" value="" style="shape=tableRow;horizontal=0;startSize=0;swimlaneHead=0;swimlaneBody=0;fillColor=none;collapsible=0;dropTarget=0;points=[[0,0.5],[1,0.5]];portConstraint=eastwest;top=0;left=0;right=0;bottom=0;labelBackgroundColor=none;strokeColor=#0F8B8D;fontColor=#143642;rounded=1;" parent="_O9gy7H62gDmHZxX6DtU-1" vertex="1">
          <mxGeometry y="60" width="180" height="30" as="geometry" />
        </mxCell>
        <mxCell id="_O9gy7H62gDmHZxX6DtU-6" value="" style="shape=partialRectangle;connectable=0;fillColor=none;top=0;left=0;bottom=0;right=0;editable=1;overflow=hidden;whiteSpace=wrap;html=1;labelBackgroundColor=none;strokeColor=#0F8B8D;fontColor=#143642;rounded=1;" parent="_O9gy7H62gDmHZxX6DtU-5" vertex="1">
          <mxGeometry width="30" height="30" as="geometry">
            <mxRectangle width="30" height="30" as="alternateBounds" />
          </mxGeometry>
        </mxCell>
        <mxCell id="_O9gy7H62gDmHZxX6DtU-7" value="Name" style="shape=partialRectangle;connectable=0;fillColor=none;top=0;left=0;bottom=0;right=0;align=left;spacingLeft=6;overflow=hidden;whiteSpace=wrap;html=1;labelBackgroundColor=none;strokeColor=#0F8B8D;fontColor=#143642;rounded=1;" parent="_O9gy7H62gDmHZxX6DtU-5" vertex="1">
          <mxGeometry x="30" width="150" height="30" as="geometry">
            <mxRectangle width="150" height="30" as="alternateBounds" />
          </mxGeometry>
        </mxCell>
        <mxCell id="_O9gy7H62gDmHZxX6DtU-8" value="" style="shape=tableRow;horizontal=0;startSize=0;swimlaneHead=0;swimlaneBody=0;fillColor=none;collapsible=0;dropTarget=0;points=[[0,0.5],[1,0.5]];portConstraint=eastwest;top=0;left=0;right=0;bottom=0;labelBackgroundColor=none;strokeColor=#0F8B8D;fontColor=#143642;rounded=1;" parent="_O9gy7H62gDmHZxX6DtU-1" vertex="1">
          <mxGeometry y="90" width="180" height="30" as="geometry" />
        </mxCell>
        <mxCell id="_O9gy7H62gDmHZxX6DtU-9" value="" style="shape=partialRectangle;connectable=0;fillColor=none;top=0;left=0;bottom=0;right=0;editable=1;overflow=hidden;whiteSpace=wrap;html=1;labelBackgroundColor=none;strokeColor=#0F8B8D;fontColor=#143642;rounded=1;" parent="_O9gy7H62gDmHZxX6DtU-8" vertex="1">
          <mxGeometry width="30" height="30" as="geometry">
            <mxRectangle width="30" height="30" as="alternateBounds" />
          </mxGeometry>
        </mxCell>
        <mxCell id="_O9gy7H62gDmHZxX6DtU-10" value="Email" style="shape=partialRectangle;connectable=0;fillColor=none;top=0;left=0;bottom=0;right=0;align=left;spacingLeft=6;overflow=hidden;whiteSpace=wrap;html=1;labelBackgroundColor=none;strokeColor=#0F8B8D;fontColor=#143642;rounded=1;" parent="_O9gy7H62gDmHZxX6DtU-8" vertex="1">
          <mxGeometry x="30" width="150" height="30" as="geometry">
            <mxRectangle width="150" height="30" as="alternateBounds" />
          </mxGeometry>
        </mxCell>
        <mxCell id="_O9gy7H62gDmHZxX6DtU-11" value="" style="shape=tableRow;horizontal=0;startSize=0;swimlaneHead=0;swimlaneBody=0;fillColor=none;collapsible=0;dropTarget=0;points=[[0,0.5],[1,0.5]];portConstraint=eastwest;top=0;left=0;right=0;bottom=0;labelBackgroundColor=none;strokeColor=#0F8B8D;fontColor=#143642;rounded=1;" parent="_O9gy7H62gDmHZxX6DtU-1" vertex="1">
          <mxGeometry y="120" width="180" height="30" as="geometry" />
        </mxCell>
        <mxCell id="_O9gy7H62gDmHZxX6DtU-12" value="" style="shape=partialRectangle;connectable=0;fillColor=none;top=0;left=0;bottom=0;right=0;editable=1;overflow=hidden;whiteSpace=wrap;html=1;labelBackgroundColor=none;strokeColor=#0F8B8D;fontColor=#143642;rounded=1;" parent="_O9gy7H62gDmHZxX6DtU-11" vertex="1">
          <mxGeometry width="30" height="30" as="geometry">
            <mxRectangle width="30" height="30" as="alternateBounds" />
          </mxGeometry>
        </mxCell>
        <mxCell id="_O9gy7H62gDmHZxX6DtU-13" value="Phone" style="shape=partialRectangle;connectable=0;fillColor=none;top=0;left=0;bottom=0;right=0;align=left;spacingLeft=6;overflow=hidden;whiteSpace=wrap;html=1;labelBackgroundColor=none;strokeColor=#0F8B8D;fontColor=#143642;rounded=1;" parent="_O9gy7H62gDmHZxX6DtU-11" vertex="1">
          <mxGeometry x="30" width="150" height="30" as="geometry">
            <mxRectangle width="150" height="30" as="alternateBounds" />
          </mxGeometry>
        </mxCell>
        <mxCell id="_O9gy7H62gDmHZxX6DtU-15" value="" style="shape=tableRow;horizontal=0;startSize=0;swimlaneHead=0;swimlaneBody=0;fillColor=none;collapsible=0;dropTarget=0;points=[[0,0.5],[1,0.5]];portConstraint=eastwest;top=0;left=0;right=0;bottom=0;labelBackgroundColor=none;strokeColor=#0F8B8D;fontColor=#143642;rounded=1;" parent="_O9gy7H62gDmHZxX6DtU-1" vertex="1">
          <mxGeometry y="150" width="180" height="30" as="geometry" />
        </mxCell>
        <mxCell id="_O9gy7H62gDmHZxX6DtU-16" value="" style="shape=partialRectangle;connectable=0;fillColor=none;top=0;left=0;bottom=0;right=0;editable=1;overflow=hidden;labelBackgroundColor=none;strokeColor=#0F8B8D;fontColor=#143642;rounded=1;" parent="_O9gy7H62gDmHZxX6DtU-15" vertex="1">
          <mxGeometry width="30" height="30" as="geometry">
            <mxRectangle width="30" height="30" as="alternateBounds" />
          </mxGeometry>
        </mxCell>
        <mxCell id="_O9gy7H62gDmHZxX6DtU-17" value="Card Num" style="shape=partialRectangle;connectable=0;fillColor=none;top=0;left=0;bottom=0;right=0;align=left;spacingLeft=6;overflow=hidden;labelBackgroundColor=none;strokeColor=#0F8B8D;fontColor=#143642;rounded=1;" parent="_O9gy7H62gDmHZxX6DtU-15" vertex="1">
          <mxGeometry x="30" width="150" height="30" as="geometry">
            <mxRectangle width="150" height="30" as="alternateBounds" />
          </mxGeometry>
        </mxCell>
        <mxCell id="_O9gy7H62gDmHZxX6DtU-18" value="Borrowing" style="shape=table;startSize=30;container=1;collapsible=1;childLayout=tableLayout;fixedRows=1;rowLines=0;fontStyle=1;align=center;resizeLast=1;html=1;labelBackgroundColor=none;fillColor=#FAE5C7;strokeColor=#0F8B8D;fontColor=#143642;rounded=1;" parent="1" vertex="1">
          <mxGeometry x="410" y="360" width="180" height="210" as="geometry" />
        </mxCell>
        <mxCell id="_O9gy7H62gDmHZxX6DtU-19" value="" style="shape=tableRow;horizontal=0;startSize=0;swimlaneHead=0;swimlaneBody=0;fillColor=none;collapsible=0;dropTarget=0;points=[[0,0.5],[1,0.5]];portConstraint=eastwest;top=0;left=0;right=0;bottom=1;labelBackgroundColor=none;strokeColor=#0F8B8D;fontColor=#143642;rounded=1;" parent="_O9gy7H62gDmHZxX6DtU-18" vertex="1">
          <mxGeometry y="30" width="180" height="30" as="geometry" />
        </mxCell>
        <mxCell id="_O9gy7H62gDmHZxX6DtU-20" value="PK" style="shape=partialRectangle;connectable=0;fillColor=none;top=0;left=0;bottom=0;right=0;fontStyle=1;overflow=hidden;whiteSpace=wrap;html=1;labelBackgroundColor=none;strokeColor=#0F8B8D;fontColor=#143642;rounded=1;" parent="_O9gy7H62gDmHZxX6DtU-19" vertex="1">
          <mxGeometry width="30" height="30" as="geometry">
            <mxRectangle width="30" height="30" as="alternateBounds" />
          </mxGeometry>
        </mxCell>
        <mxCell id="_O9gy7H62gDmHZxX6DtU-21" value="BorrowingID" style="shape=partialRectangle;connectable=0;fillColor=none;top=0;left=0;bottom=0;right=0;align=left;spacingLeft=6;fontStyle=5;overflow=hidden;whiteSpace=wrap;html=1;labelBackgroundColor=none;strokeColor=#0F8B8D;fontColor=#143642;rounded=1;" parent="_O9gy7H62gDmHZxX6DtU-19" vertex="1">
          <mxGeometry x="30" width="150" height="30" as="geometry">
            <mxRectangle width="150" height="30" as="alternateBounds" />
          </mxGeometry>
        </mxCell>
        <mxCell id="_O9gy7H62gDmHZxX6DtU-22" value="" style="shape=tableRow;horizontal=0;startSize=0;swimlaneHead=0;swimlaneBody=0;fillColor=none;collapsible=0;dropTarget=0;points=[[0,0.5],[1,0.5]];portConstraint=eastwest;top=0;left=0;right=0;bottom=0;labelBackgroundColor=none;strokeColor=#0F8B8D;fontColor=#143642;rounded=1;" parent="_O9gy7H62gDmHZxX6DtU-18" vertex="1">
          <mxGeometry y="60" width="180" height="30" as="geometry" />
        </mxCell>
        <mxCell id="_O9gy7H62gDmHZxX6DtU-23" value="" style="shape=partialRectangle;connectable=0;fillColor=none;top=0;left=0;bottom=0;right=0;editable=1;overflow=hidden;whiteSpace=wrap;html=1;labelBackgroundColor=none;strokeColor=#0F8B8D;fontColor=#143642;rounded=1;" parent="_O9gy7H62gDmHZxX6DtU-22" vertex="1">
          <mxGeometry width="30" height="30" as="geometry">
            <mxRectangle width="30" height="30" as="alternateBounds" />
          </mxGeometry>
        </mxCell>
        <mxCell id="_O9gy7H62gDmHZxX6DtU-24" value="Borrowing Date" style="shape=partialRectangle;connectable=0;fillColor=none;top=0;left=0;bottom=0;right=0;align=left;spacingLeft=6;overflow=hidden;whiteSpace=wrap;html=1;labelBackgroundColor=none;strokeColor=#0F8B8D;fontColor=#143642;rounded=1;" parent="_O9gy7H62gDmHZxX6DtU-22" vertex="1">
          <mxGeometry x="30" width="150" height="30" as="geometry">
            <mxRectangle width="150" height="30" as="alternateBounds" />
          </mxGeometry>
        </mxCell>
        <mxCell id="_O9gy7H62gDmHZxX6DtU-25" value="" style="shape=tableRow;horizontal=0;startSize=0;swimlaneHead=0;swimlaneBody=0;fillColor=none;collapsible=0;dropTarget=0;points=[[0,0.5],[1,0.5]];portConstraint=eastwest;top=0;left=0;right=0;bottom=0;labelBackgroundColor=none;strokeColor=#0F8B8D;fontColor=#143642;rounded=1;" parent="_O9gy7H62gDmHZxX6DtU-18" vertex="1">
          <mxGeometry y="90" width="180" height="30" as="geometry" />
        </mxCell>
        <mxCell id="_O9gy7H62gDmHZxX6DtU-26" value="" style="shape=partialRectangle;connectable=0;fillColor=none;top=0;left=0;bottom=0;right=0;editable=1;overflow=hidden;whiteSpace=wrap;html=1;labelBackgroundColor=none;strokeColor=#0F8B8D;fontColor=#143642;rounded=1;" parent="_O9gy7H62gDmHZxX6DtU-25" vertex="1">
          <mxGeometry width="30" height="30" as="geometry">
            <mxRectangle width="30" height="30" as="alternateBounds" />
          </mxGeometry>
        </mxCell>
        <mxCell id="_O9gy7H62gDmHZxX6DtU-27" value="Due Date" style="shape=partialRectangle;connectable=0;fillColor=none;top=0;left=0;bottom=0;right=0;align=left;spacingLeft=6;overflow=hidden;whiteSpace=wrap;html=1;labelBackgroundColor=none;strokeColor=#0F8B8D;fontColor=#143642;rounded=1;" parent="_O9gy7H62gDmHZxX6DtU-25" vertex="1">
          <mxGeometry x="30" width="150" height="30" as="geometry">
            <mxRectangle width="150" height="30" as="alternateBounds" />
          </mxGeometry>
        </mxCell>
        <mxCell id="JT3zdC2kRVgWlYoIcOBr-1" value="" style="shape=tableRow;horizontal=0;startSize=0;swimlaneHead=0;swimlaneBody=0;fillColor=none;collapsible=0;dropTarget=0;points=[[0,0.5],[1,0.5]];portConstraint=eastwest;top=0;left=0;right=0;bottom=0;labelBackgroundColor=none;strokeColor=#0F8B8D;fontColor=#143642;rounded=1;" vertex="1" parent="_O9gy7H62gDmHZxX6DtU-18">
          <mxGeometry y="120" width="180" height="30" as="geometry" />
        </mxCell>
        <mxCell id="JT3zdC2kRVgWlYoIcOBr-2" value="" style="shape=partialRectangle;connectable=0;fillColor=none;top=0;left=0;bottom=0;right=0;editable=1;overflow=hidden;labelBackgroundColor=none;strokeColor=#0F8B8D;fontColor=#143642;rounded=1;" vertex="1" parent="JT3zdC2kRVgWlYoIcOBr-1">
          <mxGeometry width="30" height="30" as="geometry">
            <mxRectangle width="30" height="30" as="alternateBounds" />
          </mxGeometry>
        </mxCell>
        <mxCell id="JT3zdC2kRVgWlYoIcOBr-3" value="Actual return Datre" style="shape=partialRectangle;connectable=0;fillColor=none;top=0;left=0;bottom=0;right=0;align=left;spacingLeft=6;overflow=hidden;labelBackgroundColor=none;strokeColor=#0F8B8D;fontColor=#143642;rounded=1;" vertex="1" parent="JT3zdC2kRVgWlYoIcOBr-1">
          <mxGeometry x="30" width="150" height="30" as="geometry">
            <mxRectangle width="150" height="30" as="alternateBounds" />
          </mxGeometry>
        </mxCell>
        <mxCell id="_O9gy7H62gDmHZxX6DtU-28" value="" style="shape=tableRow;horizontal=0;startSize=0;swimlaneHead=0;swimlaneBody=0;fillColor=none;collapsible=0;dropTarget=0;points=[[0,0.5],[1,0.5]];portConstraint=eastwest;top=0;left=0;right=0;bottom=0;labelBackgroundColor=none;strokeColor=#0F8B8D;fontColor=#143642;rounded=1;" parent="_O9gy7H62gDmHZxX6DtU-18" vertex="1">
          <mxGeometry y="150" width="180" height="30" as="geometry" />
        </mxCell>
        <mxCell id="_O9gy7H62gDmHZxX6DtU-29" value="FK" style="shape=partialRectangle;connectable=0;fillColor=none;top=0;left=0;bottom=0;right=0;editable=1;overflow=hidden;whiteSpace=wrap;html=1;labelBackgroundColor=none;strokeColor=#0F8B8D;fontColor=#143642;rounded=1;" parent="_O9gy7H62gDmHZxX6DtU-28" vertex="1">
          <mxGeometry width="30" height="30" as="geometry">
            <mxRectangle width="30" height="30" as="alternateBounds" />
          </mxGeometry>
        </mxCell>
        <mxCell id="_O9gy7H62gDmHZxX6DtU-30" value="UserID" style="shape=partialRectangle;connectable=0;fillColor=none;top=0;left=0;bottom=0;right=0;align=left;spacingLeft=6;overflow=hidden;whiteSpace=wrap;html=1;labelBackgroundColor=none;strokeColor=#0F8B8D;fontColor=#143642;rounded=1;" parent="_O9gy7H62gDmHZxX6DtU-28" vertex="1">
          <mxGeometry x="30" width="150" height="30" as="geometry">
            <mxRectangle width="150" height="30" as="alternateBounds" />
          </mxGeometry>
        </mxCell>
        <mxCell id="_O9gy7H62gDmHZxX6DtU-31" value="" style="shape=tableRow;horizontal=0;startSize=0;swimlaneHead=0;swimlaneBody=0;fillColor=none;collapsible=0;dropTarget=0;points=[[0,0.5],[1,0.5]];portConstraint=eastwest;top=0;left=0;right=0;bottom=0;labelBackgroundColor=none;strokeColor=#0F8B8D;fontColor=#143642;rounded=1;" parent="_O9gy7H62gDmHZxX6DtU-18" vertex="1">
          <mxGeometry y="180" width="180" height="30" as="geometry" />
        </mxCell>
        <mxCell id="_O9gy7H62gDmHZxX6DtU-32" value="FK" style="shape=partialRectangle;connectable=0;fillColor=none;top=0;left=0;bottom=0;right=0;editable=1;overflow=hidden;labelBackgroundColor=none;strokeColor=#0F8B8D;fontColor=#143642;rounded=1;" parent="_O9gy7H62gDmHZxX6DtU-31" vertex="1">
          <mxGeometry width="30" height="30" as="geometry">
            <mxRectangle width="30" height="30" as="alternateBounds" />
          </mxGeometry>
        </mxCell>
        <mxCell id="_O9gy7H62gDmHZxX6DtU-33" value="Book CopyID" style="shape=partialRectangle;connectable=0;fillColor=none;top=0;left=0;bottom=0;right=0;align=left;spacingLeft=6;overflow=hidden;labelBackgroundColor=none;strokeColor=#0F8B8D;fontColor=#143642;rounded=1;" parent="_O9gy7H62gDmHZxX6DtU-31" vertex="1">
          <mxGeometry x="30" width="150" height="30" as="geometry">
            <mxRectangle width="150" height="30" as="alternateBounds" />
          </mxGeometry>
        </mxCell>
        <mxCell id="_O9gy7H62gDmHZxX6DtU-35" value="Book Copy" style="shape=table;startSize=30;container=1;collapsible=1;childLayout=tableLayout;fixedRows=1;rowLines=0;fontStyle=1;align=center;resizeLast=1;html=1;labelBackgroundColor=none;fillColor=#FAE5C7;strokeColor=#0F8B8D;fontColor=#143642;rounded=1;" parent="1" vertex="1">
          <mxGeometry x="680" y="130" width="180" height="120" as="geometry" />
        </mxCell>
        <mxCell id="_O9gy7H62gDmHZxX6DtU-36" value="" style="shape=tableRow;horizontal=0;startSize=0;swimlaneHead=0;swimlaneBody=0;fillColor=none;collapsible=0;dropTarget=0;points=[[0,0.5],[1,0.5]];portConstraint=eastwest;top=0;left=0;right=0;bottom=1;labelBackgroundColor=none;strokeColor=#0F8B8D;fontColor=#143642;rounded=1;" parent="_O9gy7H62gDmHZxX6DtU-35" vertex="1">
          <mxGeometry y="30" width="180" height="30" as="geometry" />
        </mxCell>
        <mxCell id="_O9gy7H62gDmHZxX6DtU-37" value="PK" style="shape=partialRectangle;connectable=0;fillColor=none;top=0;left=0;bottom=0;right=0;fontStyle=1;overflow=hidden;whiteSpace=wrap;html=1;labelBackgroundColor=none;strokeColor=#0F8B8D;fontColor=#143642;rounded=1;" parent="_O9gy7H62gDmHZxX6DtU-36" vertex="1">
          <mxGeometry width="30" height="30" as="geometry">
            <mxRectangle width="30" height="30" as="alternateBounds" />
          </mxGeometry>
        </mxCell>
        <mxCell id="_O9gy7H62gDmHZxX6DtU-38" value="Book CopyID" style="shape=partialRectangle;connectable=0;fillColor=none;top=0;left=0;bottom=0;right=0;align=left;spacingLeft=6;fontStyle=5;overflow=hidden;whiteSpace=wrap;html=1;labelBackgroundColor=none;strokeColor=#0F8B8D;fontColor=#143642;rounded=1;" parent="_O9gy7H62gDmHZxX6DtU-36" vertex="1">
          <mxGeometry x="30" width="150" height="30" as="geometry">
            <mxRectangle width="150" height="30" as="alternateBounds" />
          </mxGeometry>
        </mxCell>
        <mxCell id="_O9gy7H62gDmHZxX6DtU-39" value="" style="shape=tableRow;horizontal=0;startSize=0;swimlaneHead=0;swimlaneBody=0;fillColor=none;collapsible=0;dropTarget=0;points=[[0,0.5],[1,0.5]];portConstraint=eastwest;top=0;left=0;right=0;bottom=0;labelBackgroundColor=none;strokeColor=#0F8B8D;fontColor=#143642;rounded=1;" parent="_O9gy7H62gDmHZxX6DtU-35" vertex="1">
          <mxGeometry y="60" width="180" height="30" as="geometry" />
        </mxCell>
        <mxCell id="_O9gy7H62gDmHZxX6DtU-40" value="" style="shape=partialRectangle;connectable=0;fillColor=none;top=0;left=0;bottom=0;right=0;editable=1;overflow=hidden;whiteSpace=wrap;html=1;labelBackgroundColor=none;strokeColor=#0F8B8D;fontColor=#143642;rounded=1;" parent="_O9gy7H62gDmHZxX6DtU-39" vertex="1">
          <mxGeometry width="30" height="30" as="geometry">
            <mxRectangle width="30" height="30" as="alternateBounds" />
          </mxGeometry>
        </mxCell>
        <mxCell id="_O9gy7H62gDmHZxX6DtU-41" value="State" style="shape=partialRectangle;connectable=0;fillColor=none;top=0;left=0;bottom=0;right=0;align=left;spacingLeft=6;overflow=hidden;whiteSpace=wrap;html=1;labelBackgroundColor=none;strokeColor=#0F8B8D;fontColor=#143642;rounded=1;" parent="_O9gy7H62gDmHZxX6DtU-39" vertex="1">
          <mxGeometry x="30" width="150" height="30" as="geometry">
            <mxRectangle width="150" height="30" as="alternateBounds" />
          </mxGeometry>
        </mxCell>
        <mxCell id="_O9gy7H62gDmHZxX6DtU-42" value="" style="shape=tableRow;horizontal=0;startSize=0;swimlaneHead=0;swimlaneBody=0;fillColor=none;collapsible=0;dropTarget=0;points=[[0,0.5],[1,0.5]];portConstraint=eastwest;top=0;left=0;right=0;bottom=0;labelBackgroundColor=none;strokeColor=#0F8B8D;fontColor=#143642;rounded=1;" parent="_O9gy7H62gDmHZxX6DtU-35" vertex="1">
          <mxGeometry y="90" width="180" height="30" as="geometry" />
        </mxCell>
        <mxCell id="_O9gy7H62gDmHZxX6DtU-43" value="FK" style="shape=partialRectangle;connectable=0;fillColor=none;top=0;left=0;bottom=0;right=0;editable=1;overflow=hidden;whiteSpace=wrap;html=1;labelBackgroundColor=none;strokeColor=#0F8B8D;fontColor=#143642;rounded=1;" parent="_O9gy7H62gDmHZxX6DtU-42" vertex="1">
          <mxGeometry width="30" height="30" as="geometry">
            <mxRectangle width="30" height="30" as="alternateBounds" />
          </mxGeometry>
        </mxCell>
        <mxCell id="_O9gy7H62gDmHZxX6DtU-44" value="BookID" style="shape=partialRectangle;connectable=0;fillColor=none;top=0;left=0;bottom=0;right=0;align=left;spacingLeft=6;overflow=hidden;whiteSpace=wrap;html=1;labelBackgroundColor=none;strokeColor=#0F8B8D;fontColor=#143642;rounded=1;" parent="_O9gy7H62gDmHZxX6DtU-42" vertex="1">
          <mxGeometry x="30" width="150" height="30" as="geometry">
            <mxRectangle width="150" height="30" as="alternateBounds" />
          </mxGeometry>
        </mxCell>
        <mxCell id="_O9gy7H62gDmHZxX6DtU-48" value="Book" style="shape=table;startSize=30;container=1;collapsible=1;childLayout=tableLayout;fixedRows=1;rowLines=0;fontStyle=1;align=center;resizeLast=1;html=1;rounded=1;labelBackgroundColor=none;fillColor=#FAE5C7;strokeColor=#0F8B8D;fontColor=#143642;" parent="1" vertex="1">
          <mxGeometry x="670" y="360" width="180" height="240" as="geometry" />
        </mxCell>
        <mxCell id="_O9gy7H62gDmHZxX6DtU-49" value="" style="shape=tableRow;horizontal=0;startSize=0;swimlaneHead=0;swimlaneBody=0;fillColor=none;collapsible=0;dropTarget=0;points=[[0,0.5],[1,0.5]];portConstraint=eastwest;top=0;left=0;right=0;bottom=1;rounded=1;labelBackgroundColor=none;strokeColor=#0F8B8D;fontColor=#143642;" parent="_O9gy7H62gDmHZxX6DtU-48" vertex="1">
          <mxGeometry y="30" width="180" height="30" as="geometry" />
        </mxCell>
        <mxCell id="_O9gy7H62gDmHZxX6DtU-50" value="PK" style="shape=partialRectangle;connectable=0;fillColor=none;top=0;left=0;bottom=0;right=0;fontStyle=1;overflow=hidden;whiteSpace=wrap;html=1;rounded=1;labelBackgroundColor=none;strokeColor=#0F8B8D;fontColor=#143642;" parent="_O9gy7H62gDmHZxX6DtU-49" vertex="1">
          <mxGeometry width="30" height="30" as="geometry">
            <mxRectangle width="30" height="30" as="alternateBounds" />
          </mxGeometry>
        </mxCell>
        <mxCell id="_O9gy7H62gDmHZxX6DtU-51" value="BookID" style="shape=partialRectangle;connectable=0;fillColor=none;top=0;left=0;bottom=0;right=0;align=left;spacingLeft=6;fontStyle=5;overflow=hidden;whiteSpace=wrap;html=1;rounded=1;labelBackgroundColor=none;strokeColor=#0F8B8D;fontColor=#143642;" parent="_O9gy7H62gDmHZxX6DtU-49" vertex="1">
          <mxGeometry x="30" width="150" height="30" as="geometry">
            <mxRectangle width="150" height="30" as="alternateBounds" />
          </mxGeometry>
        </mxCell>
        <mxCell id="_O9gy7H62gDmHZxX6DtU-52" value="" style="shape=tableRow;horizontal=0;startSize=0;swimlaneHead=0;swimlaneBody=0;fillColor=none;collapsible=0;dropTarget=0;points=[[0,0.5],[1,0.5]];portConstraint=eastwest;top=0;left=0;right=0;bottom=0;rounded=1;labelBackgroundColor=none;strokeColor=#0F8B8D;fontColor=#143642;" parent="_O9gy7H62gDmHZxX6DtU-48" vertex="1">
          <mxGeometry y="60" width="180" height="30" as="geometry" />
        </mxCell>
        <mxCell id="_O9gy7H62gDmHZxX6DtU-53" value="" style="shape=partialRectangle;connectable=0;fillColor=none;top=0;left=0;bottom=0;right=0;editable=1;overflow=hidden;whiteSpace=wrap;html=1;rounded=1;labelBackgroundColor=none;strokeColor=#0F8B8D;fontColor=#143642;" parent="_O9gy7H62gDmHZxX6DtU-52" vertex="1">
          <mxGeometry width="30" height="30" as="geometry">
            <mxRectangle width="30" height="30" as="alternateBounds" />
          </mxGeometry>
        </mxCell>
        <mxCell id="_O9gy7H62gDmHZxX6DtU-54" value="Book tital" style="shape=partialRectangle;connectable=0;fillColor=none;top=0;left=0;bottom=0;right=0;align=left;spacingLeft=6;overflow=hidden;whiteSpace=wrap;html=1;rounded=1;labelBackgroundColor=none;strokeColor=#0F8B8D;fontColor=#143642;" parent="_O9gy7H62gDmHZxX6DtU-52" vertex="1">
          <mxGeometry x="30" width="150" height="30" as="geometry">
            <mxRectangle width="150" height="30" as="alternateBounds" />
          </mxGeometry>
        </mxCell>
        <mxCell id="_O9gy7H62gDmHZxX6DtU-55" value="" style="shape=tableRow;horizontal=0;startSize=0;swimlaneHead=0;swimlaneBody=0;fillColor=none;collapsible=0;dropTarget=0;points=[[0,0.5],[1,0.5]];portConstraint=eastwest;top=0;left=0;right=0;bottom=0;rounded=1;labelBackgroundColor=none;strokeColor=#0F8B8D;fontColor=#143642;" parent="_O9gy7H62gDmHZxX6DtU-48" vertex="1">
          <mxGeometry y="90" width="180" height="30" as="geometry" />
        </mxCell>
        <mxCell id="_O9gy7H62gDmHZxX6DtU-56" value="" style="shape=partialRectangle;connectable=0;fillColor=none;top=0;left=0;bottom=0;right=0;editable=1;overflow=hidden;whiteSpace=wrap;html=1;rounded=1;labelBackgroundColor=none;strokeColor=#0F8B8D;fontColor=#143642;" parent="_O9gy7H62gDmHZxX6DtU-55" vertex="1">
          <mxGeometry width="30" height="30" as="geometry">
            <mxRectangle width="30" height="30" as="alternateBounds" />
          </mxGeometry>
        </mxCell>
        <mxCell id="_O9gy7H62gDmHZxX6DtU-57" value="Author" style="shape=partialRectangle;connectable=0;fillColor=none;top=0;left=0;bottom=0;right=0;align=left;spacingLeft=6;overflow=hidden;whiteSpace=wrap;html=1;rounded=1;labelBackgroundColor=none;strokeColor=#0F8B8D;fontColor=#143642;" parent="_O9gy7H62gDmHZxX6DtU-55" vertex="1">
          <mxGeometry x="30" width="150" height="30" as="geometry">
            <mxRectangle width="150" height="30" as="alternateBounds" />
          </mxGeometry>
        </mxCell>
        <mxCell id="_O9gy7H62gDmHZxX6DtU-58" value="" style="shape=tableRow;horizontal=0;startSize=0;swimlaneHead=0;swimlaneBody=0;fillColor=none;collapsible=0;dropTarget=0;points=[[0,0.5],[1,0.5]];portConstraint=eastwest;top=0;left=0;right=0;bottom=0;rounded=1;labelBackgroundColor=none;strokeColor=#0F8B8D;fontColor=#143642;" parent="_O9gy7H62gDmHZxX6DtU-48" vertex="1">
          <mxGeometry y="120" width="180" height="30" as="geometry" />
        </mxCell>
        <mxCell id="_O9gy7H62gDmHZxX6DtU-59" value="" style="shape=partialRectangle;connectable=0;fillColor=none;top=0;left=0;bottom=0;right=0;editable=1;overflow=hidden;whiteSpace=wrap;html=1;rounded=1;labelBackgroundColor=none;strokeColor=#0F8B8D;fontColor=#143642;" parent="_O9gy7H62gDmHZxX6DtU-58" vertex="1">
          <mxGeometry width="30" height="30" as="geometry">
            <mxRectangle width="30" height="30" as="alternateBounds" />
          </mxGeometry>
        </mxCell>
        <mxCell id="_O9gy7H62gDmHZxX6DtU-60" value="Publication Date" style="shape=partialRectangle;connectable=0;fillColor=none;top=0;left=0;bottom=0;right=0;align=left;spacingLeft=6;overflow=hidden;whiteSpace=wrap;html=1;rounded=1;labelBackgroundColor=none;strokeColor=#0F8B8D;fontColor=#143642;" parent="_O9gy7H62gDmHZxX6DtU-58" vertex="1">
          <mxGeometry x="30" width="150" height="30" as="geometry">
            <mxRectangle width="150" height="30" as="alternateBounds" />
          </mxGeometry>
        </mxCell>
        <mxCell id="_O9gy7H62gDmHZxX6DtU-91" value="" style="shape=tableRow;horizontal=0;startSize=0;swimlaneHead=0;swimlaneBody=0;fillColor=none;collapsible=0;dropTarget=0;points=[[0,0.5],[1,0.5]];portConstraint=eastwest;top=0;left=0;right=0;bottom=0;rounded=1;strokeColor=#0F8B8D;fontColor=#143642;labelBackgroundColor=none;" parent="_O9gy7H62gDmHZxX6DtU-48" vertex="1">
          <mxGeometry y="150" width="180" height="30" as="geometry" />
        </mxCell>
        <mxCell id="_O9gy7H62gDmHZxX6DtU-92" value="" style="shape=partialRectangle;connectable=0;fillColor=none;top=0;left=0;bottom=0;right=0;editable=1;overflow=hidden;rounded=1;strokeColor=#0F8B8D;fontColor=#143642;labelBackgroundColor=none;" parent="_O9gy7H62gDmHZxX6DtU-91" vertex="1">
          <mxGeometry width="30" height="30" as="geometry">
            <mxRectangle width="30" height="30" as="alternateBounds" />
          </mxGeometry>
        </mxCell>
        <mxCell id="_O9gy7H62gDmHZxX6DtU-93" value="Gener" style="shape=partialRectangle;connectable=0;fillColor=none;top=0;left=0;bottom=0;right=0;align=left;spacingLeft=6;overflow=hidden;rounded=1;strokeColor=#0F8B8D;fontColor=#143642;labelBackgroundColor=none;" parent="_O9gy7H62gDmHZxX6DtU-91" vertex="1">
          <mxGeometry x="30" width="150" height="30" as="geometry">
            <mxRectangle width="150" height="30" as="alternateBounds" />
          </mxGeometry>
        </mxCell>
        <mxCell id="_O9gy7H62gDmHZxX6DtU-97" value="" style="shape=tableRow;horizontal=0;startSize=0;swimlaneHead=0;swimlaneBody=0;fillColor=none;collapsible=0;dropTarget=0;points=[[0,0.5],[1,0.5]];portConstraint=eastwest;top=0;left=0;right=0;bottom=0;rounded=1;strokeColor=#0F8B8D;fontColor=#143642;labelBackgroundColor=none;" parent="_O9gy7H62gDmHZxX6DtU-48" vertex="1">
          <mxGeometry y="180" width="180" height="30" as="geometry" />
        </mxCell>
        <mxCell id="_O9gy7H62gDmHZxX6DtU-98" value="" style="shape=partialRectangle;connectable=0;fillColor=none;top=0;left=0;bottom=0;right=0;editable=1;overflow=hidden;rounded=1;strokeColor=#0F8B8D;fontColor=#143642;labelBackgroundColor=none;" parent="_O9gy7H62gDmHZxX6DtU-97" vertex="1">
          <mxGeometry width="30" height="30" as="geometry">
            <mxRectangle width="30" height="30" as="alternateBounds" />
          </mxGeometry>
        </mxCell>
        <mxCell id="_O9gy7H62gDmHZxX6DtU-99" value="ISBN NUM" style="shape=partialRectangle;connectable=0;fillColor=none;top=0;left=0;bottom=0;right=0;align=left;spacingLeft=6;overflow=hidden;rounded=1;strokeColor=#0F8B8D;fontColor=#143642;labelBackgroundColor=none;" parent="_O9gy7H62gDmHZxX6DtU-97" vertex="1">
          <mxGeometry x="30" width="150" height="30" as="geometry">
            <mxRectangle width="150" height="30" as="alternateBounds" />
          </mxGeometry>
        </mxCell>
        <mxCell id="_O9gy7H62gDmHZxX6DtU-101" value="" style="shape=tableRow;horizontal=0;startSize=0;swimlaneHead=0;swimlaneBody=0;fillColor=none;collapsible=0;dropTarget=0;points=[[0,0.5],[1,0.5]];portConstraint=eastwest;top=0;left=0;right=0;bottom=0;rounded=1;strokeColor=#0F8B8D;fontColor=#143642;labelBackgroundColor=none;" parent="_O9gy7H62gDmHZxX6DtU-48" vertex="1">
          <mxGeometry y="210" width="180" height="30" as="geometry" />
        </mxCell>
        <mxCell id="_O9gy7H62gDmHZxX6DtU-102" value="" style="shape=partialRectangle;connectable=0;fillColor=none;top=0;left=0;bottom=0;right=0;editable=1;overflow=hidden;rounded=1;strokeColor=#0F8B8D;fontColor=#143642;labelBackgroundColor=none;" parent="_O9gy7H62gDmHZxX6DtU-101" vertex="1">
          <mxGeometry width="30" height="30" as="geometry">
            <mxRectangle width="30" height="30" as="alternateBounds" />
          </mxGeometry>
        </mxCell>
        <mxCell id="_O9gy7H62gDmHZxX6DtU-103" value="Additional Details" style="shape=partialRectangle;connectable=0;fillColor=none;top=0;left=0;bottom=0;right=0;align=left;spacingLeft=6;overflow=hidden;rounded=1;strokeColor=#0F8B8D;fontColor=#143642;labelBackgroundColor=none;" parent="_O9gy7H62gDmHZxX6DtU-101" vertex="1">
          <mxGeometry x="30" width="150" height="30" as="geometry">
            <mxRectangle width="150" height="30" as="alternateBounds" />
          </mxGeometry>
        </mxCell>
        <mxCell id="_O9gy7H62gDmHZxX6DtU-61" value="Fin" style="shape=table;startSize=30;container=1;collapsible=1;childLayout=tableLayout;fixedRows=1;rowLines=0;fontStyle=1;align=center;resizeLast=1;html=1;strokeColor=#0F8B8D;fontColor=#143642;fillColor=#FAE5C7;rounded=1;labelBackgroundColor=none;" parent="1" vertex="1">
          <mxGeometry x="123" y="370" width="180" height="210" as="geometry" />
        </mxCell>
        <mxCell id="_O9gy7H62gDmHZxX6DtU-62" value="" style="shape=tableRow;horizontal=0;startSize=0;swimlaneHead=0;swimlaneBody=0;fillColor=none;collapsible=0;dropTarget=0;points=[[0,0.5],[1,0.5]];portConstraint=eastwest;top=0;left=0;right=0;bottom=1;strokeColor=#0F8B8D;fontColor=#143642;rounded=1;labelBackgroundColor=none;" parent="_O9gy7H62gDmHZxX6DtU-61" vertex="1">
          <mxGeometry y="30" width="180" height="30" as="geometry" />
        </mxCell>
        <mxCell id="_O9gy7H62gDmHZxX6DtU-63" value="PK" style="shape=partialRectangle;connectable=0;fillColor=none;top=0;left=0;bottom=0;right=0;fontStyle=1;overflow=hidden;whiteSpace=wrap;html=1;strokeColor=#0F8B8D;fontColor=#143642;rounded=1;labelBackgroundColor=none;" parent="_O9gy7H62gDmHZxX6DtU-62" vertex="1">
          <mxGeometry width="30" height="30" as="geometry">
            <mxRectangle width="30" height="30" as="alternateBounds" />
          </mxGeometry>
        </mxCell>
        <mxCell id="_O9gy7H62gDmHZxX6DtU-64" value="FinID" style="shape=partialRectangle;connectable=0;fillColor=none;top=0;left=0;bottom=0;right=0;align=left;spacingLeft=6;fontStyle=5;overflow=hidden;whiteSpace=wrap;html=1;strokeColor=#0F8B8D;fontColor=#143642;rounded=1;labelBackgroundColor=none;" parent="_O9gy7H62gDmHZxX6DtU-62" vertex="1">
          <mxGeometry x="30" width="150" height="30" as="geometry">
            <mxRectangle width="150" height="30" as="alternateBounds" />
          </mxGeometry>
        </mxCell>
        <mxCell id="_O9gy7H62gDmHZxX6DtU-65" value="" style="shape=tableRow;horizontal=0;startSize=0;swimlaneHead=0;swimlaneBody=0;fillColor=none;collapsible=0;dropTarget=0;points=[[0,0.5],[1,0.5]];portConstraint=eastwest;top=0;left=0;right=0;bottom=0;strokeColor=#0F8B8D;fontColor=#143642;rounded=1;labelBackgroundColor=none;" parent="_O9gy7H62gDmHZxX6DtU-61" vertex="1">
          <mxGeometry y="60" width="180" height="30" as="geometry" />
        </mxCell>
        <mxCell id="_O9gy7H62gDmHZxX6DtU-66" value="" style="shape=partialRectangle;connectable=0;fillColor=none;top=0;left=0;bottom=0;right=0;editable=1;overflow=hidden;whiteSpace=wrap;html=1;strokeColor=#0F8B8D;fontColor=#143642;rounded=1;labelBackgroundColor=none;" parent="_O9gy7H62gDmHZxX6DtU-65" vertex="1">
          <mxGeometry width="30" height="30" as="geometry">
            <mxRectangle width="30" height="30" as="alternateBounds" />
          </mxGeometry>
        </mxCell>
        <mxCell id="_O9gy7H62gDmHZxX6DtU-67" value="Cause" style="shape=partialRectangle;connectable=0;fillColor=none;top=0;left=0;bottom=0;right=0;align=left;spacingLeft=6;overflow=hidden;whiteSpace=wrap;html=1;strokeColor=#0F8B8D;fontColor=#143642;rounded=1;labelBackgroundColor=none;" parent="_O9gy7H62gDmHZxX6DtU-65" vertex="1">
          <mxGeometry x="30" width="150" height="30" as="geometry">
            <mxRectangle width="150" height="30" as="alternateBounds" />
          </mxGeometry>
        </mxCell>
        <mxCell id="_O9gy7H62gDmHZxX6DtU-68" value="" style="shape=tableRow;horizontal=0;startSize=0;swimlaneHead=0;swimlaneBody=0;fillColor=none;collapsible=0;dropTarget=0;points=[[0,0.5],[1,0.5]];portConstraint=eastwest;top=0;left=0;right=0;bottom=0;strokeColor=#0F8B8D;fontColor=#143642;rounded=1;labelBackgroundColor=none;" parent="_O9gy7H62gDmHZxX6DtU-61" vertex="1">
          <mxGeometry y="90" width="180" height="30" as="geometry" />
        </mxCell>
        <mxCell id="_O9gy7H62gDmHZxX6DtU-69" value="" style="shape=partialRectangle;connectable=0;fillColor=none;top=0;left=0;bottom=0;right=0;editable=1;overflow=hidden;whiteSpace=wrap;html=1;strokeColor=#0F8B8D;fontColor=#143642;rounded=1;labelBackgroundColor=none;" parent="_O9gy7H62gDmHZxX6DtU-68" vertex="1">
          <mxGeometry width="30" height="30" as="geometry">
            <mxRectangle width="30" height="30" as="alternateBounds" />
          </mxGeometry>
        </mxCell>
        <mxCell id="_O9gy7H62gDmHZxX6DtU-70" value="State" style="shape=partialRectangle;connectable=0;fillColor=none;top=0;left=0;bottom=0;right=0;align=left;spacingLeft=6;overflow=hidden;whiteSpace=wrap;html=1;strokeColor=#0F8B8D;fontColor=#143642;rounded=1;labelBackgroundColor=none;" parent="_O9gy7H62gDmHZxX6DtU-68" vertex="1">
          <mxGeometry x="30" width="150" height="30" as="geometry">
            <mxRectangle width="150" height="30" as="alternateBounds" />
          </mxGeometry>
        </mxCell>
        <mxCell id="_O9gy7H62gDmHZxX6DtU-71" value="" style="shape=tableRow;horizontal=0;startSize=0;swimlaneHead=0;swimlaneBody=0;fillColor=none;collapsible=0;dropTarget=0;points=[[0,0.5],[1,0.5]];portConstraint=eastwest;top=0;left=0;right=0;bottom=0;strokeColor=#0F8B8D;fontColor=#143642;rounded=1;labelBackgroundColor=none;" parent="_O9gy7H62gDmHZxX6DtU-61" vertex="1">
          <mxGeometry y="120" width="180" height="30" as="geometry" />
        </mxCell>
        <mxCell id="_O9gy7H62gDmHZxX6DtU-72" value="" style="shape=partialRectangle;connectable=0;fillColor=none;top=0;left=0;bottom=0;right=0;editable=1;overflow=hidden;whiteSpace=wrap;html=1;strokeColor=#0F8B8D;fontColor=#143642;rounded=1;labelBackgroundColor=none;" parent="_O9gy7H62gDmHZxX6DtU-71" vertex="1">
          <mxGeometry width="30" height="30" as="geometry">
            <mxRectangle width="30" height="30" as="alternateBounds" />
          </mxGeometry>
        </mxCell>
        <mxCell id="_O9gy7H62gDmHZxX6DtU-73" value="Amount" style="shape=partialRectangle;connectable=0;fillColor=none;top=0;left=0;bottom=0;right=0;align=left;spacingLeft=6;overflow=hidden;whiteSpace=wrap;html=1;strokeColor=#0F8B8D;fontColor=#143642;rounded=1;labelBackgroundColor=none;" parent="_O9gy7H62gDmHZxX6DtU-71" vertex="1">
          <mxGeometry x="30" width="150" height="30" as="geometry">
            <mxRectangle width="150" height="30" as="alternateBounds" />
          </mxGeometry>
        </mxCell>
        <mxCell id="_O9gy7H62gDmHZxX6DtU-104" value="" style="shape=tableRow;horizontal=0;startSize=0;swimlaneHead=0;swimlaneBody=0;fillColor=none;collapsible=0;dropTarget=0;points=[[0,0.5],[1,0.5]];portConstraint=eastwest;top=0;left=0;right=0;bottom=0;rounded=1;strokeColor=#0F8B8D;fontColor=#143642;labelBackgroundColor=none;" parent="_O9gy7H62gDmHZxX6DtU-61" vertex="1">
          <mxGeometry y="150" width="180" height="30" as="geometry" />
        </mxCell>
        <mxCell id="_O9gy7H62gDmHZxX6DtU-105" value="FK" style="shape=partialRectangle;connectable=0;fillColor=none;top=0;left=0;bottom=0;right=0;fontStyle=0;overflow=hidden;whiteSpace=wrap;html=1;rounded=1;strokeColor=#0F8B8D;fontColor=#143642;labelBackgroundColor=none;" parent="_O9gy7H62gDmHZxX6DtU-104" vertex="1">
          <mxGeometry width="30" height="30" as="geometry">
            <mxRectangle width="30" height="30" as="alternateBounds" />
          </mxGeometry>
        </mxCell>
        <mxCell id="_O9gy7H62gDmHZxX6DtU-106" value="BorrowingID" style="shape=partialRectangle;connectable=0;fillColor=none;top=0;left=0;bottom=0;right=0;align=left;spacingLeft=6;fontStyle=0;overflow=hidden;whiteSpace=wrap;html=1;rounded=1;strokeColor=#0F8B8D;fontColor=#143642;labelBackgroundColor=none;" parent="_O9gy7H62gDmHZxX6DtU-104" vertex="1">
          <mxGeometry x="30" width="150" height="30" as="geometry">
            <mxRectangle width="150" height="30" as="alternateBounds" />
          </mxGeometry>
        </mxCell>
        <mxCell id="JT3zdC2kRVgWlYoIcOBr-35" value="" style="shape=tableRow;horizontal=0;startSize=0;swimlaneHead=0;swimlaneBody=0;fillColor=none;collapsible=0;dropTarget=0;points=[[0,0.5],[1,0.5]];portConstraint=eastwest;top=0;left=0;right=0;bottom=0;rounded=1;strokeColor=#0F8B8D;fontColor=#143642;" vertex="1" parent="_O9gy7H62gDmHZxX6DtU-61">
          <mxGeometry y="180" width="180" height="30" as="geometry" />
        </mxCell>
        <mxCell id="JT3zdC2kRVgWlYoIcOBr-36" value="FK" style="shape=partialRectangle;connectable=0;fillColor=none;top=0;left=0;bottom=0;right=0;fontStyle=0;overflow=hidden;whiteSpace=wrap;html=1;rounded=1;strokeColor=#0F8B8D;fontColor=#143642;" vertex="1" parent="JT3zdC2kRVgWlYoIcOBr-35">
          <mxGeometry width="30" height="30" as="geometry">
            <mxRectangle width="30" height="30" as="alternateBounds" />
          </mxGeometry>
        </mxCell>
        <mxCell id="JT3zdC2kRVgWlYoIcOBr-37" value="UserID" style="shape=partialRectangle;connectable=0;fillColor=none;top=0;left=0;bottom=0;right=0;align=left;spacingLeft=6;fontStyle=0;overflow=hidden;whiteSpace=wrap;html=1;rounded=1;strokeColor=#0F8B8D;fontColor=#143642;" vertex="1" parent="JT3zdC2kRVgWlYoIcOBr-35">
          <mxGeometry x="30" width="150" height="30" as="geometry">
            <mxRectangle width="150" height="30" as="alternateBounds" />
          </mxGeometry>
        </mxCell>
        <mxCell id="_O9gy7H62gDmHZxX6DtU-74" value="Reservation" style="shape=table;startSize=30;container=1;collapsible=1;childLayout=tableLayout;fixedRows=1;rowLines=0;fontStyle=1;align=center;resizeLast=1;html=1;rounded=1;strokeColor=#0F8B8D;fontColor=#143642;fillColor=#FAE5C7;labelBackgroundColor=none;" parent="1" vertex="1">
          <mxGeometry x="410" y="130" width="180" height="180" as="geometry" />
        </mxCell>
        <mxCell id="_O9gy7H62gDmHZxX6DtU-75" value="" style="shape=tableRow;horizontal=0;startSize=0;swimlaneHead=0;swimlaneBody=0;fillColor=none;collapsible=0;dropTarget=0;points=[[0,0.5],[1,0.5]];portConstraint=eastwest;top=0;left=0;right=0;bottom=1;rounded=1;strokeColor=#0F8B8D;fontColor=#143642;labelBackgroundColor=none;" parent="_O9gy7H62gDmHZxX6DtU-74" vertex="1">
          <mxGeometry y="30" width="180" height="30" as="geometry" />
        </mxCell>
        <mxCell id="_O9gy7H62gDmHZxX6DtU-76" value="PK" style="shape=partialRectangle;connectable=0;fillColor=none;top=0;left=0;bottom=0;right=0;fontStyle=1;overflow=hidden;whiteSpace=wrap;html=1;rounded=1;strokeColor=#0F8B8D;fontColor=#143642;labelBackgroundColor=none;" parent="_O9gy7H62gDmHZxX6DtU-75" vertex="1">
          <mxGeometry width="30" height="30" as="geometry">
            <mxRectangle width="30" height="30" as="alternateBounds" />
          </mxGeometry>
        </mxCell>
        <mxCell id="_O9gy7H62gDmHZxX6DtU-77" value="ReservationID" style="shape=partialRectangle;connectable=0;fillColor=none;top=0;left=0;bottom=0;right=0;align=left;spacingLeft=6;fontStyle=5;overflow=hidden;whiteSpace=wrap;html=1;rounded=1;strokeColor=#0F8B8D;fontColor=#143642;labelBackgroundColor=none;" parent="_O9gy7H62gDmHZxX6DtU-75" vertex="1">
          <mxGeometry x="30" width="150" height="30" as="geometry">
            <mxRectangle width="150" height="30" as="alternateBounds" />
          </mxGeometry>
        </mxCell>
        <mxCell id="_O9gy7H62gDmHZxX6DtU-78" value="" style="shape=tableRow;horizontal=0;startSize=0;swimlaneHead=0;swimlaneBody=0;fillColor=none;collapsible=0;dropTarget=0;points=[[0,0.5],[1,0.5]];portConstraint=eastwest;top=0;left=0;right=0;bottom=0;rounded=1;strokeColor=#0F8B8D;fontColor=#143642;labelBackgroundColor=none;" parent="_O9gy7H62gDmHZxX6DtU-74" vertex="1">
          <mxGeometry y="60" width="180" height="30" as="geometry" />
        </mxCell>
        <mxCell id="_O9gy7H62gDmHZxX6DtU-79" value="" style="shape=partialRectangle;connectable=0;fillColor=none;top=0;left=0;bottom=0;right=0;editable=1;overflow=hidden;whiteSpace=wrap;html=1;rounded=1;strokeColor=#0F8B8D;fontColor=#143642;labelBackgroundColor=none;" parent="_O9gy7H62gDmHZxX6DtU-78" vertex="1">
          <mxGeometry width="30" height="30" as="geometry">
            <mxRectangle width="30" height="30" as="alternateBounds" />
          </mxGeometry>
        </mxCell>
        <mxCell id="_O9gy7H62gDmHZxX6DtU-80" value="Reservation Order" style="shape=partialRectangle;connectable=0;fillColor=none;top=0;left=0;bottom=0;right=0;align=left;spacingLeft=6;overflow=hidden;whiteSpace=wrap;html=1;rounded=1;strokeColor=#0F8B8D;fontColor=#143642;labelBackgroundColor=none;" parent="_O9gy7H62gDmHZxX6DtU-78" vertex="1">
          <mxGeometry x="30" width="150" height="30" as="geometry">
            <mxRectangle width="150" height="30" as="alternateBounds" />
          </mxGeometry>
        </mxCell>
        <mxCell id="JT3zdC2kRVgWlYoIcOBr-30" value="" style="shape=tableRow;horizontal=0;startSize=0;swimlaneHead=0;swimlaneBody=0;fillColor=none;collapsible=0;dropTarget=0;points=[[0,0.5],[1,0.5]];portConstraint=eastwest;top=0;left=0;right=0;bottom=0;rounded=1;strokeColor=#0F8B8D;fontColor=#143642;" vertex="1" parent="_O9gy7H62gDmHZxX6DtU-74">
          <mxGeometry y="90" width="180" height="30" as="geometry" />
        </mxCell>
        <mxCell id="JT3zdC2kRVgWlYoIcOBr-31" value="" style="shape=partialRectangle;connectable=0;fillColor=none;top=0;left=0;bottom=0;right=0;editable=1;overflow=hidden;rounded=1;strokeColor=#0F8B8D;fontColor=#143642;" vertex="1" parent="JT3zdC2kRVgWlYoIcOBr-30">
          <mxGeometry width="30" height="30" as="geometry">
            <mxRectangle width="30" height="30" as="alternateBounds" />
          </mxGeometry>
        </mxCell>
        <mxCell id="JT3zdC2kRVgWlYoIcOBr-32" value="Reservation Date" style="shape=partialRectangle;connectable=0;fillColor=none;top=0;left=0;bottom=0;right=0;align=left;spacingLeft=6;overflow=hidden;rounded=1;strokeColor=#0F8B8D;fontColor=#143642;" vertex="1" parent="JT3zdC2kRVgWlYoIcOBr-30">
          <mxGeometry x="30" width="150" height="30" as="geometry">
            <mxRectangle width="150" height="30" as="alternateBounds" />
          </mxGeometry>
        </mxCell>
        <mxCell id="_O9gy7H62gDmHZxX6DtU-81" value="" style="shape=tableRow;horizontal=0;startSize=0;swimlaneHead=0;swimlaneBody=0;fillColor=none;collapsible=0;dropTarget=0;points=[[0,0.5],[1,0.5]];portConstraint=eastwest;top=0;left=0;right=0;bottom=0;rounded=1;strokeColor=#0F8B8D;fontColor=#143642;labelBackgroundColor=none;" parent="_O9gy7H62gDmHZxX6DtU-74" vertex="1">
          <mxGeometry y="120" width="180" height="30" as="geometry" />
        </mxCell>
        <mxCell id="_O9gy7H62gDmHZxX6DtU-82" value="FK" style="shape=partialRectangle;connectable=0;fillColor=none;top=0;left=0;bottom=0;right=0;editable=1;overflow=hidden;whiteSpace=wrap;html=1;rounded=1;strokeColor=#0F8B8D;fontColor=#143642;labelBackgroundColor=none;" parent="_O9gy7H62gDmHZxX6DtU-81" vertex="1">
          <mxGeometry width="30" height="30" as="geometry">
            <mxRectangle width="30" height="30" as="alternateBounds" />
          </mxGeometry>
        </mxCell>
        <mxCell id="_O9gy7H62gDmHZxX6DtU-83" value="UserID" style="shape=partialRectangle;connectable=0;fillColor=none;top=0;left=0;bottom=0;right=0;align=left;spacingLeft=6;overflow=hidden;whiteSpace=wrap;html=1;rounded=1;strokeColor=#0F8B8D;fontColor=#143642;labelBackgroundColor=none;" parent="_O9gy7H62gDmHZxX6DtU-81" vertex="1">
          <mxGeometry x="30" width="150" height="30" as="geometry">
            <mxRectangle width="150" height="30" as="alternateBounds" />
          </mxGeometry>
        </mxCell>
        <mxCell id="_O9gy7H62gDmHZxX6DtU-84" value="" style="shape=tableRow;horizontal=0;startSize=0;swimlaneHead=0;swimlaneBody=0;fillColor=none;collapsible=0;dropTarget=0;points=[[0,0.5],[1,0.5]];portConstraint=eastwest;top=0;left=0;right=0;bottom=0;rounded=1;strokeColor=#0F8B8D;fontColor=#143642;labelBackgroundColor=none;" parent="_O9gy7H62gDmHZxX6DtU-74" vertex="1">
          <mxGeometry y="150" width="180" height="30" as="geometry" />
        </mxCell>
        <mxCell id="_O9gy7H62gDmHZxX6DtU-85" value="FK" style="shape=partialRectangle;connectable=0;fillColor=none;top=0;left=0;bottom=0;right=0;editable=1;overflow=hidden;whiteSpace=wrap;html=1;rounded=1;strokeColor=#0F8B8D;fontColor=#143642;labelBackgroundColor=none;" parent="_O9gy7H62gDmHZxX6DtU-84" vertex="1">
          <mxGeometry width="30" height="30" as="geometry">
            <mxRectangle width="30" height="30" as="alternateBounds" />
          </mxGeometry>
        </mxCell>
        <mxCell id="_O9gy7H62gDmHZxX6DtU-86" value="Book CopyID" style="shape=partialRectangle;connectable=0;fillColor=none;top=0;left=0;bottom=0;right=0;align=left;spacingLeft=6;overflow=hidden;whiteSpace=wrap;html=1;rounded=1;strokeColor=#0F8B8D;fontColor=#143642;labelBackgroundColor=none;" parent="_O9gy7H62gDmHZxX6DtU-84" vertex="1">
          <mxGeometry x="30" width="150" height="30" as="geometry">
            <mxRectangle width="150" height="30" as="alternateBounds" />
          </mxGeometry>
        </mxCell>
        <mxCell id="_O9gy7H62gDmHZxX6DtU-107" value="" style="edgeStyle=orthogonalEdgeStyle;fontSize=12;html=1;endArrow=ERzeroToMany;startArrow=ERmandOne;rounded=1;strokeColor=#A8201A;fontColor=default;fillColor=#FAE5C7;entryX=1;entryY=0.5;entryDx=0;entryDy=0;endFill=0;exitX=1;exitY=0.5;exitDx=0;exitDy=0;labelBackgroundColor=none;" parent="1" source="_O9gy7H62gDmHZxX6DtU-49" target="_O9gy7H62gDmHZxX6DtU-42" edge="1">
          <mxGeometry width="100" height="100" relative="1" as="geometry">
            <mxPoint x="870" y="405" as="sourcePoint" />
            <mxPoint x="650" y="280" as="targetPoint" />
            <Array as="points">
              <mxPoint x="930" y="405" />
              <mxPoint x="930" y="235" />
            </Array>
          </mxGeometry>
        </mxCell>
        <mxCell id="_O9gy7H62gDmHZxX6DtU-108" style="edgeStyle=orthogonalEdgeStyle;rounded=1;orthogonalLoop=1;jettySize=auto;html=1;exitX=0;exitY=0.5;exitDx=0;exitDy=0;strokeColor=#A8201A;fontColor=default;fillColor=#FAE5C7;endArrow=ERzeroToMany;endFill=0;startArrow=ERmandOne;startFill=0;labelBackgroundColor=none;entryX=0;entryY=0.5;entryDx=0;entryDy=0;" parent="1" source="_O9gy7H62gDmHZxX6DtU-2" target="_O9gy7H62gDmHZxX6DtU-81" edge="1">
          <mxGeometry relative="1" as="geometry">
            <Array as="points">
              <mxPoint x="110" y="175" />
              <mxPoint x="110" y="100" />
              <mxPoint x="365" y="100" />
              <mxPoint x="365" y="265" />
            </Array>
            <mxPoint x="390" y="265" as="targetPoint" />
          </mxGeometry>
        </mxCell>
        <mxCell id="_O9gy7H62gDmHZxX6DtU-109" style="edgeStyle=orthogonalEdgeStyle;rounded=1;orthogonalLoop=1;jettySize=auto;html=1;strokeColor=#A8201A;fontColor=default;fillColor=#FAE5C7;endArrow=ERmandOne;endFill=0;startArrow=ERzeroToMany;startFill=0;entryX=1;entryY=0.5;entryDx=0;entryDy=0;labelBackgroundColor=none;exitX=1;exitY=0.5;exitDx=0;exitDy=0;" parent="1" source="_O9gy7H62gDmHZxX6DtU-84" target="_O9gy7H62gDmHZxX6DtU-36" edge="1">
          <mxGeometry relative="1" as="geometry">
            <mxPoint x="660" y="175" as="targetPoint" />
            <Array as="points">
              <mxPoint x="620" y="295" />
              <mxPoint x="620" y="100" />
              <mxPoint x="880" y="100" />
              <mxPoint x="880" y="175" />
            </Array>
            <mxPoint x="610" y="290" as="sourcePoint" />
          </mxGeometry>
        </mxCell>
        <mxCell id="_O9gy7H62gDmHZxX6DtU-113" style="edgeStyle=orthogonalEdgeStyle;rounded=1;orthogonalLoop=1;jettySize=auto;html=1;exitX=1;exitY=0.5;exitDx=0;exitDy=0;entryX=0;entryY=0.5;entryDx=0;entryDy=0;strokeColor=#A8201A;fontColor=default;fillColor=#FAE5C7;endArrow=ERmandOne;endFill=0;startArrow=ERzeroToMany;startFill=0;labelBackgroundColor=none;" parent="1" source="_O9gy7H62gDmHZxX6DtU-31" target="_O9gy7H62gDmHZxX6DtU-36" edge="1">
          <mxGeometry relative="1" as="geometry" />
        </mxCell>
        <mxCell id="_O9gy7H62gDmHZxX6DtU-114" style="edgeStyle=orthogonalEdgeStyle;rounded=1;orthogonalLoop=1;jettySize=auto;html=1;exitX=0;exitY=0.5;exitDx=0;exitDy=0;entryX=1;entryY=0.5;entryDx=0;entryDy=0;strokeColor=#A8201A;fontColor=default;fillColor=#FAE5C7;endArrow=ERmandOne;endFill=0;startArrow=ERzeroToMany;startFill=0;labelBackgroundColor=none;" parent="1" source="_O9gy7H62gDmHZxX6DtU-28" target="_O9gy7H62gDmHZxX6DtU-2" edge="1">
          <mxGeometry relative="1" as="geometry">
            <Array as="points">
              <mxPoint x="350" y="525" />
              <mxPoint x="350" y="175" />
            </Array>
          </mxGeometry>
        </mxCell>
        <mxCell id="_O9gy7H62gDmHZxX6DtU-115" style="edgeStyle=orthogonalEdgeStyle;rounded=1;orthogonalLoop=1;jettySize=auto;html=1;exitX=1;exitY=0.5;exitDx=0;exitDy=0;entryX=0;entryY=0.5;entryDx=0;entryDy=0;strokeColor=#A8201A;fontColor=default;fillColor=#FAE5C7;endArrow=ERmandOne;endFill=0;startArrow=ERzeroToOne;startFill=0;labelBackgroundColor=none;" parent="1" source="_O9gy7H62gDmHZxX6DtU-104" target="_O9gy7H62gDmHZxX6DtU-19" edge="1">
          <mxGeometry relative="1" as="geometry">
            <Array as="points">
              <mxPoint x="330" y="535" />
              <mxPoint x="330" y="405" />
            </Array>
          </mxGeometry>
        </mxCell>
        <mxCell id="JT3zdC2kRVgWlYoIcOBr-17" value="Settings" style="shape=table;startSize=30;container=1;collapsible=1;childLayout=tableLayout;fixedRows=1;rowLines=0;fontStyle=1;align=center;resizeLast=1;html=1;rounded=1;strokeColor=#0F8B8D;fontColor=#143642;fillColor=#FAE5C7;" vertex="1" parent="1">
          <mxGeometry x="303" y="620" width="180" height="100" as="geometry" />
        </mxCell>
        <mxCell id="JT3zdC2kRVgWlYoIcOBr-21" value="" style="shape=tableRow;horizontal=0;startSize=0;swimlaneHead=0;swimlaneBody=0;fillColor=none;collapsible=0;dropTarget=0;points=[[0,0.5],[1,0.5]];portConstraint=eastwest;top=0;left=0;right=0;bottom=0;rounded=1;strokeColor=#0F8B8D;fontColor=#143642;" vertex="1" parent="JT3zdC2kRVgWlYoIcOBr-17">
          <mxGeometry y="30" width="180" height="40" as="geometry" />
        </mxCell>
        <mxCell id="JT3zdC2kRVgWlYoIcOBr-22" value="" style="shape=partialRectangle;connectable=0;fillColor=none;top=0;left=0;bottom=0;right=0;editable=1;overflow=hidden;whiteSpace=wrap;html=1;rounded=1;strokeColor=#0F8B8D;fontColor=#143642;" vertex="1" parent="JT3zdC2kRVgWlYoIcOBr-21">
          <mxGeometry width="30" height="40" as="geometry">
            <mxRectangle width="30" height="40" as="alternateBounds" />
          </mxGeometry>
        </mxCell>
        <mxCell id="JT3zdC2kRVgWlYoIcOBr-23" value="DefualtBorrrowDays" style="shape=partialRectangle;connectable=0;fillColor=none;top=0;left=0;bottom=0;right=0;align=left;spacingLeft=6;overflow=hidden;whiteSpace=wrap;html=1;rounded=1;strokeColor=#0F8B8D;fontColor=#143642;" vertex="1" parent="JT3zdC2kRVgWlYoIcOBr-21">
          <mxGeometry x="30" width="150" height="40" as="geometry">
            <mxRectangle width="150" height="40" as="alternateBounds" />
          </mxGeometry>
        </mxCell>
        <mxCell id="JT3zdC2kRVgWlYoIcOBr-24" value="" style="shape=tableRow;horizontal=0;startSize=0;swimlaneHead=0;swimlaneBody=0;fillColor=none;collapsible=0;dropTarget=0;points=[[0,0.5],[1,0.5]];portConstraint=eastwest;top=0;left=0;right=0;bottom=0;rounded=1;strokeColor=#0F8B8D;fontColor=#143642;" vertex="1" parent="JT3zdC2kRVgWlYoIcOBr-17">
          <mxGeometry y="70" width="180" height="30" as="geometry" />
        </mxCell>
        <mxCell id="JT3zdC2kRVgWlYoIcOBr-25" value="" style="shape=partialRectangle;connectable=0;fillColor=none;top=0;left=0;bottom=0;right=0;editable=1;overflow=hidden;whiteSpace=wrap;html=1;rounded=1;strokeColor=#0F8B8D;fontColor=#143642;" vertex="1" parent="JT3zdC2kRVgWlYoIcOBr-24">
          <mxGeometry width="30" height="30" as="geometry">
            <mxRectangle width="30" height="30" as="alternateBounds" />
          </mxGeometry>
        </mxCell>
        <mxCell id="JT3zdC2kRVgWlYoIcOBr-26" value="DefaultFinePerDay " style="shape=partialRectangle;connectable=0;fillColor=none;top=0;left=0;bottom=0;right=0;align=left;spacingLeft=6;overflow=hidden;whiteSpace=wrap;html=1;rounded=1;strokeColor=#0F8B8D;fontColor=#143642;" vertex="1" parent="JT3zdC2kRVgWlYoIcOBr-24">
          <mxGeometry x="30" width="150" height="30" as="geometry">
            <mxRectangle width="150" height="30" as="alternateBounds" />
          </mxGeometry>
        </mxCell>
        <mxCell id="JT3zdC2kRVgWlYoIcOBr-38" style="edgeStyle=orthogonalEdgeStyle;rounded=1;orthogonalLoop=1;jettySize=auto;html=1;exitX=0;exitY=0.5;exitDx=0;exitDy=0;entryX=0;entryY=0.5;entryDx=0;entryDy=0;strokeColor=#A8201A;fontColor=#143642;fillColor=#FAE5C7;endArrow=none;startFill=0;startArrow=ERzeroToMany;" edge="1" parent="1" source="JT3zdC2kRVgWlYoIcOBr-35" target="_O9gy7H62gDmHZxX6DtU-2">
          <mxGeometry relative="1" as="geometry">
            <Array as="points">
              <mxPoint x="80" y="565" />
              <mxPoint x="80" y="175" />
            </Array>
          </mxGeometry>
        </mxCell>
      </root>
    </mxGraphModel>
  </diagram>
</mxfile>
